<svg width="1765" height="280" viewBox="0 0 1765 280" fill="none" xmlns="http://www.w3.org/2000/svg">
<path d="M230.069 32.2449C206.29 21.5492 177.259 16.2013 142.88 16.2013H0.397217V272.04H132.662C169.906 272.04 201.134 266.31 226.345 254.85C249.36 245.301 268.937 229.066 282.689 208.247C295.008 188.575 301.406 165.751 301.12 142.545C301.502 119.434 295.39 96.706 283.357 76.9379C270.561 56.9789 251.938 41.3172 230.069 32.1494V32.2449ZM184.612 189.625C172.198 201.181 154.435 207.006 131.229 207.006H91.7886V81.3308H136.386C158.733 81.3308 175.54 86.9652 186.713 97.9474C198.078 109.789 204.094 125.833 203.33 142.354C204.19 160.116 197.409 177.306 184.708 189.721L184.612 189.625ZM669.455 161.358C681.106 171.767 686.931 187.047 687.026 207.197C687.408 228.684 676.331 248.834 657.899 260.007C638.704 272.899 611.201 279.393 575.485 279.298C554.953 279.298 534.516 276.719 514.653 271.658C495.84 266.978 477.886 259.434 461.27 249.407V188.766C475.785 199.271 492.02 207.006 509.305 211.59C528.214 217.32 547.886 220.376 567.654 220.471C574.435 220.853 581.31 219.612 587.613 217.033C592.102 214.741 594.298 211.781 594.298 208.82C594.393 205.382 593.057 202.136 590.669 199.653C586.467 196.501 581.597 194.305 576.44 193.445L532.607 183.609C507.491 177.784 489.633 169.666 479.128 159.352C468.432 148.561 462.702 133.759 463.466 118.575C463.275 105.014 468.241 91.8356 477.313 81.7128C488.104 70.2531 501.761 61.9448 516.754 57.4564C536.14 51.3445 556.385 48.4796 576.726 48.8616C595.73 48.6706 614.639 50.867 632.975 55.4509C647.872 58.9843 662.101 64.6187 675.376 72.2585V129.653C662.961 122.49 649.591 116.951 635.744 113.418C620.656 109.407 605.089 107.306 589.523 107.306C566.604 107.306 555.144 111.222 555.144 118.957C555.144 122.49 557.149 125.737 560.396 127.17C566.699 129.844 573.193 131.754 579.878 132.804L616.454 139.393C640.137 143.595 657.899 150.853 669.55 161.358H669.455ZM912.019 203.568C922.715 200.512 932.933 196.119 942.483 190.58V255.328C914.216 271.753 881.937 280.157 849.277 279.489C823.111 280.157 797.04 274.905 773.261 264.018C753.684 255.041 737.258 240.526 725.894 222.286C715.294 204.332 709.85 183.895 710.232 163.077C709.946 142.258 715.676 121.822 726.658 104.25C738.404 86.2967 755.212 72.163 774.884 63.5682C798.854 53.159 824.734 48.0976 850.901 48.7661C887.476 48.7661 917.749 56.4059 941.91 71.781V138.725C932.742 132.518 922.715 127.743 912.115 124.496C900.273 120.771 887.954 118.957 875.539 119.052C852.906 119.052 835.143 123.159 822.347 131.467C804.393 141.494 797.899 164.223 807.927 182.272C811.174 188.097 816.044 192.968 821.774 196.406C834.189 204.809 852.238 209.011 875.826 209.011C888.049 209.011 900.177 207.292 911.828 203.759L912.019 203.568ZM1182.56 63.4727C1134.53 43.9912 1080.76 43.9912 1032.73 63.4727C1013.15 72.0675 996.535 86.1057 984.693 103.868C973.52 121.44 967.694 141.781 968.076 162.599C967.79 183.609 973.615 204.332 984.693 222.19C996.439 240.43 1013.25 254.946 1033.01 263.923C1080.76 284.264 1134.72 284.264 1182.47 263.827C1202.14 254.85 1218.85 240.335 1230.5 222.095C1241.49 204.141 1247.22 183.513 1246.93 162.504C1247.31 141.685 1241.58 121.249 1230.5 103.677C1218.76 86.0102 1202.14 71.972 1182.66 63.4727H1182.56ZM1143.98 199.08C1134.15 208.343 1120.97 213.213 1107.41 212.354C1093.94 213.022 1080.76 208.247 1070.83 199.08C1061.76 189.625 1056.89 176.924 1057.56 163.745C1056.89 150.758 1061.76 138.152 1070.83 128.889C1080.76 119.816 1093.94 115.233 1107.41 115.901C1120.87 115.137 1134.05 119.816 1143.98 128.889C1153.15 138.152 1158.02 150.758 1157.35 163.745C1157.93 176.829 1153.15 189.625 1143.98 199.08ZM1433.25 53.3499C1444.9 53.0635 1456.45 56.0239 1466.48 62.1357V141.208C1455.59 134.714 1442.99 131.563 1430.29 132.04C1410.8 132.04 1395.81 137.961 1385.31 149.803C1374.9 161.644 1369.64 179.98 1369.64 204.809V272.04H1280.07V58.2203H1367.73V126.119C1372.61 101.29 1380.44 82.9543 1391.32 71.1126C1402.02 59.3663 1417.2 52.8725 1433.06 53.3499H1433.25ZM1674.47 8.84799V104.155C1659.86 67.1016 1631.21 48.5751 1588.62 48.5751C1569.14 48.2886 1549.94 53.4455 1533.23 63.5682C1517 73.691 1503.91 88.1111 1495.61 105.301C1486.53 124.114 1482.05 144.741 1482.71 165.56C1482.33 185.71 1486.53 205.573 1494.94 223.909C1502.58 240.43 1514.8 254.564 1530.08 264.496C1545.93 274.523 1564.36 279.68 1583.08 279.298C1603.04 279.871 1622.71 275 1640 265.069C1655.66 255.423 1667.79 241.003 1674.57 223.909V271.944H1764.15V8.84799H1674.57H1674.47ZM1661.3 197.838C1651.36 207.006 1638.18 211.685 1624.72 210.921C1611.54 211.59 1598.65 206.815 1588.91 197.838C1579.74 188.957 1574.77 176.542 1575.25 163.745C1574.77 151.044 1579.64 138.82 1588.81 129.939C1609.92 112.75 1640.19 112.75 1661.3 129.939C1670.46 138.534 1675.43 150.662 1675.05 163.268C1675.52 176.16 1670.56 188.766 1661.3 197.838ZM421.256 40.9352C421.256 63.0907 401.297 81.0443 376.659 81.0443C352.02 81.0443 332.061 63.0907 332.061 40.9352C332.061 18.7798 352.02 0.826172 376.659 0.826172C401.297 0.826172 421.256 18.7798 421.256 40.9352ZM421.256 108.643V273.186H331.966V108.643C360.519 120.676 392.702 120.676 421.256 108.643Z" fill="#E0E3FF"/>
</svg>
